<svg xmlns="http://www.w3.org/2000/svg" xmlns:xlink="http://www.w3.org/1999/xlink" id="Capa_1" x="0" y="0" version="1.1" viewBox="0 0 33.811 33.811" xml:space="preserve" style="enable-background:new 0 0 33.811 33.811"><g><rect style="fill:#454545" width="25.084" height="5.102" x="8.727" y="5.82"/><rect style="fill:#454545" width="25.084" height="5.102" x="8.727" y="14.038"/><rect style="fill:#454545" width="25.084" height="5.1" x="8.727" y="22.82"/><circle style="fill:#454545" cx="2.621" cy="8.442" r="2.621"/><path style="fill:#454545" d="M2.621,13.966c-1.448,0-2.62,1.172-2.62,2.62c0,1.449,1.172,2.625,2.62,2.625 c1.447,0,2.622-1.176,2.622-2.625C5.242,15.138,4.067,13.966,2.621,13.966z"/><path style="fill:#454545" d="M2.621,22.75c-1.448,0-2.62,1.174-2.62,2.619c0,1.451,1.172,2.621,2.62,2.621 c1.447,0,2.622-1.17,2.622-2.621C5.242,23.924,4.067,22.75,2.621,22.75z"/></g></svg>